<svg xmlns="http://www.w3.org/2000/svg" xmlns:xlink="http://www.w3.org/1999/xlink" width="25" height="25" viewBox="0 0 25 25"><defs><linearGradient id="a" x1="0.137" x2="0.911" y2="0.949" gradientUnits="objectBoundingBox"><stop offset="0" stop-color="#e0b154"/><stop offset="0.204" stop-color="#c18829"/><stop offset="0.495" stop-color="#ebc55c"/><stop offset="0.73" stop-color="#ddae45"/><stop offset="1" stop-color="#be8122"/></linearGradient></defs><g transform="translate(-1188 -664)"><rect width="25" height="25" rx="6" transform="translate(1188 664)" fill="url(#a)"/><path d="M4.849,4.6A2.488,2.488,0,1,0,7.338,7.09,2.484,2.484,0,0,0,4.849,4.6Zm0,4.106A1.618,1.618,0,1,1,6.467,7.09,1.621,1.621,0,0,1,4.849,8.708ZM8.02,4.5a.58.58,0,1,1-.58-.58A.579.579,0,0,1,8.02,4.5Zm1.648.589a2.872,2.872,0,0,0-.784-2.033A2.891,2.891,0,0,0,6.85,2.272c-.8-.045-3.2-.045-4,0a2.887,2.887,0,0,0-2.033.782A2.881,2.881,0,0,0,.029,5.087c-.045.8-.045,3.2,0,4a2.872,2.872,0,0,0,.784,2.033,2.9,2.9,0,0,0,2.033.784c.8.045,3.2.045,4,0a2.872,2.872,0,0,0,2.033-.784,2.891,2.891,0,0,0,.784-2.033c.045-.8.045-3.2,0-4ZM8.633,9.951a1.638,1.638,0,0,1-.923.923,10.7,10.7,0,0,1-2.861.195,10.779,10.779,0,0,1-2.861-.195,1.638,1.638,0,0,1-.923-.923A10.7,10.7,0,0,1,.871,7.09a10.779,10.779,0,0,1,.195-2.861,1.638,1.638,0,0,1,.923-.923,10.7,10.7,0,0,1,2.861-.195,10.779,10.779,0,0,1,2.861.195,1.638,1.638,0,0,1,.923.923A10.7,10.7,0,0,1,8.827,7.09,10.689,10.689,0,0,1,8.633,9.951Z" transform="translate(1195.651 669.41)" fill="#fff"/></g></svg>