<svg xmlns="http://www.w3.org/2000/svg" xmlns:xlink="http://www.w3.org/1999/xlink" width="25" height="25" viewBox="0 0 25 25"><defs><linearGradient id="a" x1="0.137" x2="0.911" y2="0.949" gradientUnits="objectBoundingBox"><stop offset="0" stop-color="#e0b154"/><stop offset="0.204" stop-color="#c18829"/><stop offset="0.495" stop-color="#ebc55c"/><stop offset="0.73" stop-color="#ddae45"/><stop offset="1" stop-color="#be8122"/></linearGradient></defs><g transform="translate(-1160 -664)"><rect width="25" height="25" rx="6" transform="translate(1160 664)" fill="url(#a)"/><path d="M2.142,9.569H.158V3.181H2.142Zm-.993-7.26A1.154,1.154,0,1,1,2.3,1.15,1.159,1.159,0,0,1,1.149,2.309Zm8.418,7.26H7.587V6.459c0-.741-.015-1.692-1.031-1.692s-1.189.805-1.189,1.638V9.569H3.385V3.181h1.9v.871h.028A2.085,2.085,0,0,1,7.192,3.021c2.008,0,2.377,1.322,2.377,3.039V9.569Z" transform="translate(1168.088 671.087)" fill="#fff"/></g></svg>