<svg xmlns="http://www.w3.org/2000/svg" width="280.513" height="193.647" viewBox="0 0 280.513 193.647"><g transform="translate(-123.714 -328.712)"><path d="M28.474,0H4.14l.966-2.944H17.664a15.077,15.077,0,0,0-2.254-7.912c-1.288-2.07-2.668-3.082-4.186-3.082V-16.79c2.346,0,4.324,1.15,6.026,3.4,1.886,2.53,3.036,5.98,3.4,10.442h7.82Zm5.29,0h-6.3V-2.944h6.3Zm5.474,0h-6.3V-2.944h6.3Zm5.474,0h-6.3V-2.944h6.3Zm5.474,0h-6.3V-2.944h6.3ZM55.66,0h-6.3V-2.944h6.3Zm5.474,0h-6.3V-2.944h6.3Zm5.474,0h-6.3V-2.944h6.3Zm5.474,0h-6.3V-2.944h6.3Zm5.474,0h-6.3V-2.944h6.3ZM83.03,0h-6.3V-2.944h6.3ZM88.5,0H82.2V-2.944h6.3Zm19.55,0H87.538l-.046-2.944h6.9A9.168,9.168,0,0,1,92.046-9.2a7.857,7.857,0,0,1,2.53-5.98,7.6,7.6,0,0,1,5.336-2.208,7.86,7.86,0,0,1,6.44,2.99l-2.024,1.61a5.255,5.255,0,0,0-4.232-1.886,4.172,4.172,0,0,0-2.806,1.242A5.911,5.911,0,0,0,95.45-8.74a5.638,5.638,0,0,0,5.7,5.8h5.658Zm27.508,0H128.57c-1.426,5.7-5.612,9.476-11.454,9.982-.276-.6-.736-1.518-1.334-2.852a9.492,9.492,0,0,0,6.026-1.978A10.549,10.549,0,0,0,125.3,0h-4.14a6.345,6.345,0,0,1-5.152-2.392,8.831,8.831,0,0,1-1.886-5.842,8.769,8.769,0,0,1,2.852-6.808,7.28,7.28,0,0,1,4.922-1.84c4.784,0,7.176,2.438,7.176,7.268v6.67h6.486ZM125.9-2.944v-7.682c0-2.714-1.334-4.094-3.68-4.094a3.875,3.875,0,0,0-3.128,1.564,7.089,7.089,0,0,0-1.518,4.692c0,3.082,1.7,5.52,4.416,5.52ZM140.622,0h-6.3V-2.944h6.3ZM146.1,0h-6.3V-2.944h6.3Zm5.474,0h-6.3V-2.944h6.3Zm5.474,0h-6.3V-2.944h6.3Zm5.474,0h-6.3V-2.944h6.3Zm5.474,0h-6.3V-2.944h6.3Zm5.474,0h-6.3V-2.944h6.3Zm5.474,0h-6.3V-2.944h6.3Zm5.474,0h-6.3V-2.944h6.3Zm8.556-5.98c0,3.68-2.208,5.98-6.256,5.98h-2.99V-2.944h2.944A2.9,2.9,0,0,0,189.8-6.072c0-2.9-.046-6.854-.092-11.822-.046-5.75-.092-9.706-.092-11.868h3.174c0,2.116.046,6.072.092,11.914C192.924-12.88,192.97-8.924,192.97-5.98ZM207.874,0h-3.956a4.477,4.477,0,0,1-3.266-1.334,5.439,5.439,0,0,1-1.564-4.094l-.138-24.334h3.174l.138,23.92c0,1.7.736,2.668,2.162,2.9h3.45Zm5.566,0h-6.3V-2.944h6.3Zm5.474,0h-6.3V-2.944h6.3Zm5.474,0h-6.3V-2.944h6.3Zm5.474,0h-6.3V-2.944h6.3Zm5.474,0h-6.3V-2.944h6.3Zm5.474,0h-6.3V-2.944h6.3Zm5.474,0h-6.3V-2.944h6.3Zm5.474,0h-6.3V-2.944h6.3Zm5.474,0h-6.3V-2.944h6.3Zm5.474,0h-6.3V-2.944h6.3Zm19.55,0H261.74l-.046-2.944h6.9A9.168,9.168,0,0,1,266.248-9.2a7.857,7.857,0,0,1,2.53-5.98,7.6,7.6,0,0,1,5.336-2.208,7.86,7.86,0,0,1,6.44,2.99l-2.024,1.61a5.255,5.255,0,0,0-4.232-1.886,4.172,4.172,0,0,0-2.806,1.242,5.911,5.911,0,0,0-1.84,4.692,5.638,5.638,0,0,0,5.7,5.8h5.658Z" transform="translate(120.581 512.377)" fill="#db120d"/><g transform="translate(123.714 328.712)"><g transform="translate(0 99.804)"><path d="M143.943,478.166v8.3h7.075v5.269a7.539,7.539,0,0,1-2.453.86,17.155,17.155,0,0,1-3.171.268,16.221,16.221,0,0,1-5.49-.891,12.073,12.073,0,0,1-4.283-2.6,11.926,11.926,0,0,1-2.816-4.181,14.673,14.673,0,0,1-1-5.537,19.241,19.241,0,0,1,.891-6.137,11.346,11.346,0,0,1,2.642-4.409,11.091,11.091,0,0,1,4.323-2.666,17.979,17.979,0,0,1,5.9-.891,14.537,14.537,0,0,1,3.061.387,29.843,29.843,0,0,1,3.4.978,15.807,15.807,0,0,1,2.674,1.183l2.619-8a23.035,23.035,0,0,0-5.569-2.28,27.075,27.075,0,0,0-7.241-.915,22.7,22.7,0,0,0-7.991,1.42,18.593,18.593,0,0,0-6.744,4.354,20.9,20.9,0,0,0-4.622,7.344,29.027,29.027,0,0,0-1.7,10.4,22.928,22.928,0,0,0,1.507,8.408,18.938,18.938,0,0,0,4.338,6.665,19.938,19.938,0,0,0,6.855,4.386,24.526,24.526,0,0,0,9.024,1.57,19.821,19.821,0,0,0,4.007-.442,34,34,0,0,0,4.149-1.159,22.875,22.875,0,0,0,3.589-1.57,8.358,8.358,0,0,0,2.287-1.688V478.166Z" transform="translate(-123.45 -455.591)" fill="#2b2b2b"/><path d="M188.507,492.806v-9.418h17.6V475.1h-17.6V465.79h19.878V457.5H180.43v43.6h28.736v-8.3Z" transform="translate(-135.485 -455.717)" fill="#2b2b2b"/><path d="M235.527,492.806v-9.418h17.6V475.1h-17.6V465.79h19.885V457.5H227.45v43.6h28.736v-8.3Z" transform="translate(-145.415 -455.717)" fill="#2b2b2b"/><path d="M270.94,457.5v8.29h9.584V501.1H288.6V465.79h9.962V457.5Z" transform="translate(-154.601 -455.717)" fill="#2b2b2b"/><path d="M340.813,489.659a12.676,12.676,0,0,1-3.565,2.374,12.861,12.861,0,0,1-5.624,1.12,12.4,12.4,0,0,1-5.1-1,11.044,11.044,0,0,1-3.873-2.879,12.942,12.942,0,0,1-2.477-4.473,18.162,18.162,0,0,1-.86-5.742,15.451,15.451,0,0,1,.947-5.482,14.455,14.455,0,0,1,2.587-4.417,11.716,11.716,0,0,1,3.786-2.926,10.146,10.146,0,0,1,4.488-1.041,11.316,11.316,0,0,1,5.316,1.215,23.488,23.488,0,0,1,3.707,2.343l3.171-8.117a24.374,24.374,0,0,0-5.182-2.548,20.785,20.785,0,0,0-7.3-1.183,19.534,19.534,0,0,0-8.124,1.656,18.353,18.353,0,0,0-6.326,4.678,21.3,21.3,0,0,0-4.062,7.17,28.037,28.037,0,0,0-1.42,9.126,24.884,24.884,0,0,0,1.388,8.353,21.306,21.306,0,0,0,4.039,6.934,18.981,18.981,0,0,0,6.46,4.764,21.874,21.874,0,0,0,8.661,1.869,19.2,19.2,0,0,0,5.79-.71,21.3,21.3,0,0,0,4.433-1.783,15.667,15.667,0,0,0,2.477-1.593Z" transform="translate(-163.043 -455.591)" fill="#2b2b2b"/><path d="M400.356,470.7a23.018,23.018,0,0,0-4.567-7.139,21.9,21.9,0,0,0-6.713-4.89,19.375,19.375,0,0,0-16.2,0,21.215,21.215,0,0,0-6.657,4.89,23.059,23.059,0,0,0-4.48,7.139,22.612,22.612,0,0,0-1.617,8.527,22.967,22.967,0,0,0,1.617,8.653,22.316,22.316,0,0,0,4.48,7.076,20.859,20.859,0,0,0,6.657,4.772,19.941,19.941,0,0,0,16.2,0,21.532,21.532,0,0,0,6.713-4.772,22.28,22.28,0,0,0,4.567-7.076A22.68,22.68,0,0,0,402,479.231,22.33,22.33,0,0,0,400.356,470.7ZM392.7,484.658a14.46,14.46,0,0,1-2.619,4.441,11.837,11.837,0,0,1-3.92,2.99,11.293,11.293,0,0,1-4.875,1.065,11.882,11.882,0,0,1-5.04-1.065,12.536,12.536,0,0,1-4.062-2.99,14,14,0,0,1-2.729-4.441,14.8,14.8,0,0,1-.978-5.427,15.677,15.677,0,0,1,.946-5.506,13.809,13.809,0,0,1,2.674-4.473,12.457,12.457,0,0,1,4.007-3,12.072,12.072,0,0,1,9.915,0,12.2,12.2,0,0,1,3.984,3,14.694,14.694,0,0,1,2.674,4.473,16.07,16.07,0,0,1,.024,10.933Z" transform="translate(-173.436 -455.591)" fill="#2b2b2b"/><path d="M465.556,455.24,444.3,486.61l-20.793-31.37h-.055v45.387h7.8V481.112l12.865,18.923h.11l13.362-20.209v20.8h8.077V455.24Z" transform="translate(-186.812 -455.24)" fill="#2b2b2b"/></g><g transform="translate(0.268)"><rect width="7.62" height="7.525" transform="translate(120.266 35.605)" fill="#db120d"/><rect width="7.621" height="7.525" transform="translate(108.712 35.605)" fill="#db120d"/><rect width="7.62" height="7.591" transform="translate(157.974 81.017)" fill="#db120d"/><rect width="7.621" height="7.591" transform="translate(146.42 81.017)" fill="#db120d"/><rect width="7.682" height="7.591" transform="translate(194.056 81.017)" fill="#db120d"/><path d="M177.688,385.109l-.079.079H193.1a11.221,11.221,0,0,1,8.48,3.731,15.208,15.208,0,0,1,3.928,8.771h-31.37c-.947-8.409-6.855-14.664-15.161-14.664h-19.27c-10.112,0-15.918,7.7-15.918,19.325v25.8h7.651V404.025c0-7.92,3.281-12.715,8.4-12.715h5.608a18.06,18.06,0,0,0-1.917,8.574c0,9.45,6.358,16.936,15.445,16.936a14.768,14.768,0,0,0,14.269-10.365H342.183v-3.005c0-17.077-7.312-27.284-21.384-27.355a19.763,19.763,0,0,0-15.247,6.941c2.035,2.942,3.447,4.97,4.307,6.216a15.086,15.086,0,0,1,10.325-4.709c7.186,0,12.471,5.75,12.842,13.149H289.263a20.535,20.535,0,0,0,.978-6.61V376.819H281.58V391.4c0,4.189-1.412,6.287-4.3,6.287H251.306a20.522,20.522,0,0,0,1.041-6.61V376.819h-8.661V391.4c0,4.189-1.475,6.287-4.362,6.287H214.549c-.923-8.771-4.118-14.853-9.592-18.324a18.63,18.63,0,0,0-7.99-2.619H192.36s18.631-12.834,32.451-18.166c1.3-.465,2.6-.915,3.881-1.333.347-.095.694-.2,1.025-.284,2.453-.631,3.4-.946,3.329-1.049,69.729-20.059,119.8,27.221,125.126,32.506a28.662,28.662,0,0,1,8.448-7.6,177.678,177.678,0,0,0-14.664-11.69l4.22-6.326a192.762,192.762,0,0,1,18.631,14.75,29.252,29.252,0,0,1,6.539-.734,28.932,28.932,0,0,1,8.763,1.349C277.045,263.588,178.73,383.824,177.688,385.109Zm-18.505,24.224c-4.583,0-7.793-4.212-7.793-9.521,0-5.23,2.666-9.3,7.312-9.3,4.717,0,7.722,4.141,7.722,9.592C166.424,405.484,163.482,409.333,159.183,409.333Zm29.525-31.718h-.087l-.82-1.223c.355-.339.8-.741,1.309-1.215l.9,1.333C189.149,377.221,188.708,377.616,188.708,377.616Zm2.564-2.122-.954-1.4c.347-.3.71-.623,1.1-.954l1.057,1.42C192.029,374.894,191.634,375.21,191.271,375.494Zm2.477-1.909-1.1-1.491c.45-.378.931-.781,1.436-1.191l1.16,1.585C194.718,372.867,194.221,373.238,193.748,373.585Zm2.808-2.035-1.223-1.664q.864-.686,1.8-1.42l1.207,1.83C197.716,370.73,197.116,371.148,196.556,371.55ZM200,369.176l-1.27-1.933c.592-.442,1.2-.9,1.83-1.365l1.278,2.082C201.21,368.371,200.595,368.781,200,369.176Zm3.534-2.288L202.2,364.7c.631-.45,1.27-.9,1.933-1.357l1.388,2.311C204.839,366.076,204.176,366.478,203.537,366.888Zm3.7-2.264-1.443-2.406c.6-.41,1.223-.82,1.854-1.231l1.38,2.6C208.42,363.93,207.82,364.285,207.237,364.624Zm3.542-2.027-1.443-2.7c.765-.481,1.538-.962,2.327-1.451l1.467,2.863C212.324,361.737,211.543,362.171,210.778,362.6Zm4.125-2.224-1.514-2.958q1.763-1.053,3.628-2.09l1.522,3.218C217.294,359.15,216.079,359.765,214.9,360.373Zm5.451-2.7-1.578-3.321q2.2-1.195,4.536-2.358l1.451,3.684Q222.492,356.661,220.354,357.675Zm6.87-3.045-1.5-3.81q2.532-1.219,5.206-2.366l1.4,4.173Q229.721,353.6,227.225,354.63Zm8.487-3.21-1.467-4.346q2.709-1.089,5.545-2.09l1.562,4.63C239.427,350.182,237.55,350.789,235.712,351.42Zm9.087-2.784-1.617-4.8q3.313-1.077,6.776-2l1.309,5.214Q247.966,347.772,244.8,348.635Zm9.97-2.3-1.349-5.372c3.1-.734,6.279-1.365,9.537-1.87l.607,5.884Q259.068,345.516,254.769,346.34Zm21.392-2.193c-3.068.039-6.1.205-9.063.473l-.615-6.018c3.155-.4,6.389-.686,9.679-.828Zm16.525.915a117.778,117.778,0,0,0-12.5-.907v-6.492a116.183,116.183,0,0,1,13.417.647Zm18.056,3.731a120.662,120.662,0,0,0-14.072-3.163l.923-6.831a119.51,119.51,0,0,1,15.255,3.179Zm18.45,6.965a126.6,126.6,0,0,0-13.741-5.5l2.122-6.878a131.839,131.839,0,0,1,14.853,5.774Zm18.237,10.262a145.072,145.072,0,0,0-13.709-8.038l3.258-6.642a153.562,153.562,0,0,1,14.648,8.409Z" transform="translate(-123.79 -328.713)" fill="#db120d"/></g><g transform="translate(63.079 48.825)"><path d="M203.443,390.611l-.024.025h.042Z" transform="translate(-203.419 -390.611)" fill="#fefcfd"/></g><path d="M22.22,61.2a1.819,1.819,0,0,1-1.53-.864L2.414,31.89h.1A21.237,21.237,0,0,1,0,21.826,21.51,21.51,0,0,1,6.5,6.393a22.44,22.44,0,0,1,31.372,0,21.5,21.5,0,0,1,3.985,25.5h.173L23.75,60.334A1.819,1.819,0,0,1,22.22,61.2ZM22.184,9.32c-6.738,0-12.219,5.83-12.219,13s5.481,13,12.219,13,12.219-5.831,12.219-13S28.922,9.32,22.184,9.32Z" transform="translate(235.645 55.427)" fill="#2b2b2b" stroke="rgba(0,0,0,0)" stroke-miterlimit="10" stroke-width="1"/></g></g></svg>