<svg xmlns="http://www.w3.org/2000/svg" xmlns:xlink="http://www.w3.org/1999/xlink" width="25" height="25" viewBox="0 0 25 25"><defs><linearGradient id="a" x1="0.137" x2="0.911" y2="0.949" gradientUnits="objectBoundingBox"><stop offset="0" stop-color="#e0b154"/><stop offset="0.204" stop-color="#c18829"/><stop offset="0.495" stop-color="#ebc55c"/><stop offset="0.73" stop-color="#ddae45"/><stop offset="1" stop-color="#be8122"/></linearGradient></defs><g transform="translate(-1216 -664)"><rect width="25" height="25" rx="6" transform="translate(1216 664)" fill="url(#a)"/><path d="M9.639,5.555c.007.1.007.191.007.286a6.222,6.222,0,0,1-6.264,6.264A6.222,6.222,0,0,1,0,11.118a4.555,4.555,0,0,0,.532.027A4.409,4.409,0,0,0,3.265,10.2,2.206,2.206,0,0,1,1.207,8.677a2.777,2.777,0,0,0,.416.034A2.329,2.329,0,0,0,2.2,8.636,2.2,2.2,0,0,1,.436,6.476V6.448a2.217,2.217,0,0,0,1,.279A2.205,2.205,0,0,1,.75,3.783a6.258,6.258,0,0,0,4.54,2.3,2.486,2.486,0,0,1-.055-.5,2.2,2.2,0,0,1,3.81-1.506,4.335,4.335,0,0,0,1.4-.532,2.2,2.2,0,0,1-.968,1.213,4.414,4.414,0,0,0,1.268-.341,4.733,4.733,0,0,1-1.1,1.138Z" transform="translate(1223.128 668.757)" fill="#fff"/></g></svg>